Patient4_TMGait_0pt3_02_right_22_GRF.mot
version=1
nRows=32
nColumns=19
inDegrees=no
endheader
time	F1x	F1y	F1z	M1x	M1y	M1z	F2x	F2y	F2z	M2x	M2y	M2z	EC1x	EC1y	EC1z	EC2x	EC2y	EC2z
42.13	-8.9233	759.589	50.2367	-247.7826	-50.7711	776.5669	-3.0666	26.4813	-6.6816	11.4759	4.5261	18.5827	-0.0592	0.0182	-0.0073	-0.0462	0.0165	0.9585
42.1498	-10.3953	773.4857	52.1983	-252.3638	-53.1486	787.8501	-2.8614	21.8556	-5.2258	9.3082	3.9495	15.9634	-0.0592	0.0182	-0.0073	-0.0462	0.0165	0.9585
42.1696	-11.7728	789.7366	54.3656	-257.6431	-55.5771	800.9946	-2.5146	16.8484	-3.7654	7.0484	3.2029	12.8774	-0.0592	0.0182	-0.0073	-0.0462	0.0165	0.9585
42.1894	-12.8447	807.2897	56.5546	-263.2859	-57.8035	814.9482	-1.9924	12.0751	-2.4447	4.9544	2.3618	9.7562	-0.0592	0.0182	-0.0073	-0.0462	0.0165	0.9585
42.2091	-13.3869	824.7728	58.5622	-268.8785	-59.5677	828.3021	-1.4092	8.0608	-1.3756	3.2299	1.5673	7.0233	-0.0592	0.0182	-0.0073	-0.0462	0.0165	0.9585
42.2289	-13.1813	840.5099	60.1849	-273.9147	-60.6198	839.3424	-0.88075	5.0274	-0.59534	1.9511	0.91704	4.8906	-0.0592	0.0182	-0.0073	-0.0462	0.0165	0.9585
42.2487	-12.0487	852.5933	61.2439	-277.802	-60.7524	846.1726	-0.46148	2.9484	-0.083482	1.0927	0.44429	3.3786	-0.0592	0.0182	-0.0073	-0.0462	0.0165	0.9585
42.2685	-9.9168	858.9999	61.6283	-279.8883	-59.8613	846.8864	-0.16771	1.6634	0.20866	0.57695	0.14231	2.402	-0.0592	0.0182	-0.0073	-0.0462	0.0165	0.9585
42.2883	-6.8465	857.9515	61.31	-279.5809	-57.9651	839.9252	0.0081866	0.9493	0.33769	0.30303	-0.01796	1.8121	-0.0592	0.0182	-0.0073	-0.0462	0.0165	0.9585
42.3081	-3.0039	848.4825	60.3325	-276.5415	-55.1832	824.5889	0.085421	0.56845	0.35953	0.16673	-0.074995	1.4358	-0.0592	0.0182	-0.0073	-0.0462	0.0165	0.9585
42.3279	1.3924	830.8907	58.7969	-270.8443	-51.7052	801.4078	0.084902	0.29613	0.32409	0.071629	-0.068132	1.0961	-0.0592	0.0182	-0.0073	-0.0462	0.0165	0.9585
42.3476	6.1475	806.9366	56.841	-263.0473	-47.7446	772.2652	0.027969	-0.065268	0.27078	-0.065689	-0.032673	0.62475	-0.0592	0.0182	-0.0073	-0.0462	0.0165	0.9585
42.3674	11.1133	779.649	54.6355	-254.129	-43.5236	740.1732	-0.057298	-0.67288	0.22716	-0.3097	0.00083878	-0.11877	-0.0592	0.0182	-0.0073	-0.0462	0.0165	0.9585
42.3872	16.1571	752.7412	52.3868	-245.2952	-39.2824	708.7179	-0.13606	-1.6248	0.21015	-0.70004	0.0065469	-1.2251	-0.0592	0.0182	-0.0073	-0.0462	0.0165	0.9585
42.407	21.1432	729.8666	50.319	-237.7321	-35.2679	681.3691	-0.16792	-2.9329	0.22672	-1.2418	-0.036553	-2.7034	-0.0592	0.0182	-0.0073	-0.0462	0.0165	0.9585
42.4268	25.9306	713.8813	48.643	-232.3644	-31.7124	660.8064	-0.10523	-4.4972	0.27478	-1.8927	-0.14598	-4.4467	-0.0592	0.0182	-0.0073	-0.0462	0.0165	0.9585
42.4466	30.3748	706.2554	47.5224	-229.6659	-28.8071	648.3895	0.10912	-6.0587	0.34487	-2.5447	-0.33472	-6.1821	-0.0592	0.0182	-0.0073	-0.0462	0.0165	0.9585
42.4664	34.356	706.8135	47.0488	-229.5787	-26.6742	643.9338	0.54019	-7.1463	0.41881	-3.0007	-0.60823	-7.4126	-0.0592	0.0182	-0.0073	-0.0462	0.0165	0.9585
42.4861	37.7983	713.8309	47.2324	-231.5435	-25.3506	645.8287	1.2537	-7.0224	0.46753	-2.9511	-0.95916	-7.3496	-0.0592	0.0182	-0.0073	-0.0462	0.0165	0.9585
42.5059	40.6522	724.4188	48.0084	-234.6218	-24.8	651.4167	2.3006	-4.6393	0.4452	-1.9567	-1.358	-4.8693	-0.0592	0.0182	-0.0073	-0.0462	0.0165	0.9585
42.5257	42.8728	735.0716	49.2482	-237.6743	-24.9279	657.509	3.6907	1.3429	0.29063	0.54533	-1.7413	1.4611	-0.0592	0.0182	-0.0073	-0.0462	0.0165	0.9585
42.5455	44.4335	742.333	50.7418	-239.5813	-25.5666	660.9877	5.3513	12.4608	-0.066439	5.1998	-1.999	13.2846	-0.0592	0.0182	-0.0073	-0.0462	0.0165	0.9585
42.5653	45.3338	743.3143	52.2092	-239.4144	-26.4784	659.2641	7.0644	30.231	-0.70396	12.6425	-1.9536	32.233	-0.0592	0.0182	-0.0073	-0.0462	0.0165	0.9585
42.5851	45.5909	735.9838	53.3406	-236.5319	-27.3891	650.5265	8.319	55.8169	-1.694	23.3596	-1.3152	59.571	-0.0592	0.0182	-0.0073	-0.0462	0.0165	0.9585
42.6049	45.2212	719.2722	53.8432	-230.6108	-28.0369	633.8331	8.186	89.5323	-3.0947	37.4799	0.35383	95.6707	-0.0592	0.0182	-0.0073	-0.0462	0.0165	0.9585
42.6246	44.2323	693.0312	53.4759	-221.6359	-28.2076	609.0735	5.8897	130.5701	-4.9677	54.6557	3.423	139.7195	-0.0592	0.0182	-0.0073	-0.0462	0.0165	0.9585
42.6444	42.6465	657.9901	52.1022	-209.8813	-27.7698	576.917	1.5727	177.0083	-7.4061	74.0546	7.9203	189.6583	-0.0592	0.0182	-0.0073	-0.0462	0.0165	0.9585
42.6642	40.527	615.6843	49.7214	-195.8806	-26.6933	538.7295	-4.0352	225.7143	-10.4788	94.342	13.6014	242.0392	-0.0592	0.0182	-0.0073	-0.0462	0.0165	0.9585
42.684	38.0175	568.4092	46.4663	-180.4033	-25.0373	496.5086	-9.9839	273.6051	-13.9277	114.2344	19.7776	293.4226	-0.0592	0.0182	-0.0073	-0.0462	0.0165	0.9585
42.7038	35.3366	518.921	42.5851	-164.3502	-22.9292	452.6196	-15.4327	318.779	-17.2553	132.9609	25.5638	341.6526	-0.0592	0.0182	-0.0073	-0.0462	0.0165	0.9585
42.7236	32.684	469.8144	38.3747	-148.5527	-20.5408	409.2802	-19.736	360.1164	-20.0582	150.0798	30.2806	385.4657	-0.0592	0.0182	-0.0073	-0.0462	0.0165	0.9585
42.7434	30.199	423.065	34.1073	-133.628	-18.0426	368.1706	-22.5064	396.7519	-22.103	165.247	33.551	423.9325	-0.0592	0.0182	-0.0073	-0.0462	0.0165	0.9585
